#N canvas 454 316 594 381 10;
#X obj 50 28 gemhead;
#X obj 50 50 alpha;
#X obj 50 94 rotateXYZ 90 0 0;
#X obj 50 150 pix_texture;
#X obj 50 202 translateXYZ 0 0 0;
#X obj 421 21 inlet;
#X obj 304 23 loadbang;
#X obj 304 45 i \$1;
#X floatatom 195 104 5 0 0 0 - - -, f 5;
#X obj 195 29 inlet;
#X obj 195 57 +;
#X obj 50 128 pix_buffer_read worldline;
#X obj 195 79 mod 50;
#X obj 50 72 color 1 1 1 0.5;
#X obj 50 224 sphere 5 20;
#X obj 318 120 * -0.15;
#X connect 0 0 1 0;
#X connect 1 0 13 0;
#X connect 2 0 11 0;
#X connect 3 0 4 0;
#X connect 4 0 14 0;
#X connect 5 0 2 3;
#X connect 6 0 7 0;
#X connect 7 0 10 1;
#X connect 7 0 15 0;
#X connect 8 0 11 1;
#X connect 9 0 10 0;
#X connect 10 0 12 0;
#X connect 11 0 3 0;
#X connect 12 0 8 0;
#X connect 13 0 2 0;
#X connect 15 0 4 2;
