#N canvas 114 204 932 493 10;
#X obj 50 88 gemhead;
#X obj 50 226 rotateXYZ 90 0 0, f 37;
#X obj 50 324 pix_texture;
#X obj 180 335 loadbang;
#X obj 180 357 i \$1;
#X obj 50 302 pix_buffer_read worldline;
#X obj 50 426 sphere 5 20;
#X obj 180 379 * \$3;
#X obj 50 152 color 1 1 1 0.2;
#X obj 132 190 r worldline_y_rotation;
#X obj 406 138 r worldline_z_rotation;
#X obj 460 22 inlet z_rotation;
#X obj 50 346 alpha;
#X obj 138 110 tabread worldline_opacity;
#X msg 138 132 1 1 1 \$1;
#X obj 320 24 inlet frame_number;
#X obj 528 262 expr \$2 - (($i1 + \$1) % \$2) - 1;
#X obj 138 88 t \$1;
#X obj 100 30 r worldline_opacity_changed;
#X obj 296 238 t \$1;
#X obj 296 260 mod \$2;
#X obj 370 208 gate 3;
#X obj 646 114 r worldline_mode;
#X obj 376 262 expr ($i1 + \$1) % \$2;
#X obj 180 401 + 4;
#X connect 0 0 8 0;
#X connect 1 0 5 0;
#X connect 2 0 12 0;
#X connect 3 0 4 0;
#X connect 4 0 7 0;
#X connect 5 0 2 0;
#X connect 7 0 24 0;
#X connect 8 0 1 0;
#X connect 9 0 1 2;
#X connect 10 0 1 3;
#X connect 11 0 1 3;
#X connect 12 0 6 0;
#X connect 13 0 14 0;
#X connect 14 0 8 1;
#X connect 15 0 17 0;
#X connect 15 0 21 1;
#X connect 16 0 5 1;
#X connect 17 0 13 0;
#X connect 18 0 17 0;
#X connect 19 0 20 0;
#X connect 20 0 5 1;
#X connect 21 0 19 0;
#X connect 21 1 23 0;
#X connect 21 2 16 0;
#X connect 22 0 21 0;
#X connect 23 0 5 1;
#X connect 24 0 6 1;
