#N canvas 258 111 1022 586 10;
#N canvas 414 243 451 301 gemwin 0;
#X obj 132 136 gemwin;
#X obj 67 89 outlet;
#X obj 67 10 inlet;
#X msg 67 70 set destroy;
#X msg 292 116 destroy;
#X msg 156 71 set create;
#X obj 67 41 route create;
#X msg 132 112 dimen 1280 720 \, create \, 1;
#X connect 2 0 6 0;
#X connect 3 0 1 0;
#X connect 4 0 0 0;
#X connect 5 0 1 0;
#X connect 6 0 3 0;
#X connect 6 0 7 0;
#X connect 6 1 5 0;
#X connect 6 1 4 0;
#X connect 7 0 0 0;
#X restore 820 111 pd gemwin;
#X msg 820 92 create;
#X text 362 44 rotation;
#X obj 364 62 hsl 128 15 0 360 0 0 empty empty empty -2 -8 0 10 -262144
-1 -1 0 1;
#X msg 230 118 all \$1;
#X msg 364 82 all \$1;
#X obj 550 76 pix_buffer worldline 50;
#X obj 460 168 gemhead;
#X obj 460 210 pix_film arboretum_shadow.mp4;
#X obj 708 182 until;
#X obj 708 150 t f b;
#X obj 708 212 i;
#X obj 741 211 + 1;
#X msg 757 182 0;
#X msg 708 120 50;
#X obj 458 268 pix_buffer_write worldline;
#X floatatom 230 90 5 0 0 0 - - -, f 5;
#X floatatom 632 180 5 0 0 0 - - -, f 5;
#X obj 708 234 t b f f;
#X obj 186 64 i;
#X obj 216 64 + 1;
#X obj 170 18 tgl 15 0 empty empty empty 17 7 0 10 -262144 -1 -1 0
1;
#X obj 186 42 metro 33;
#X obj 230 166 clone worldline_unit 30;
#X connect 0 0 1 0;
#X connect 1 0 0 0;
#X connect 3 0 5 0;
#X connect 4 0 23 0;
#X connect 5 0 23 1;
#X connect 7 0 8 0;
#X connect 8 0 15 0;
#X connect 9 0 11 0;
#X connect 10 0 9 0;
#X connect 10 1 13 0;
#X connect 11 0 12 0;
#X connect 11 0 18 0;
#X connect 12 0 11 1;
#X connect 13 0 11 1;
#X connect 14 0 10 0;
#X connect 16 0 4 0;
#X connect 17 0 8 1;
#X connect 18 0 7 0;
#X connect 18 1 17 0;
#X connect 18 2 15 1;
#X connect 19 0 20 0;
#X connect 19 0 16 0;
#X connect 20 0 19 1;
#X connect 21 0 22 0;
#X connect 22 0 19 0;
