#N canvas 114 204 932 493 10;
#X obj 50 88 gemhead;
#X obj 48 196 rotateXYZ 90 0 0;
#X obj 48 252 pix_texture;
#X obj 372 37 loadbang;
#X obj 372 59 i \$1;
#X obj 48 230 pix_buffer_read worldline;
#X obj 48 356 sphere 5 20;
#X obj 374 208 + 5;
#X obj 374 186 * \$3;
#X obj 50 152 color 1 1 1 0.2;
#X obj 510 140 r worldline_y_rotation;
#X obj 528 170 r worldline_z_rotation;
#X obj 568 92 inlet z_rotation;
#X obj 200 26 inlet;
#X obj 196 124 expr ($i1 + \$1) % \$2;
#X obj 48 274 alpha;
#X obj 128 90 tabread worldline_opacity;
#X msg 128 112 1 1 1 \$1;
#X obj 200 48 t \$1 i;
#X connect 0 0 9 0;
#X connect 1 0 5 0;
#X connect 2 0 15 0;
#X connect 3 0 4 0;
#X connect 4 0 8 0;
#X connect 5 0 2 0;
#X connect 7 0 6 1;
#X connect 8 0 7 0;
#X connect 9 0 1 0;
#X connect 10 0 1 2;
#X connect 11 0 1 3;
#X connect 12 0 1 3;
#X connect 13 0 18 0;
#X connect 14 0 5 1;
#X connect 15 0 6 0;
#X connect 16 0 17 0;
#X connect 17 0 9 1;
#X connect 18 0 16 0;
#X connect 18 1 14 0;
