#N canvas 88 108 1104 571 10;
#N canvas 414 336 452 304 gemwin 0;
#X obj 67 89 outlet;
#X obj 67 10 inlet;
#X msg 67 70 set destroy;
#X msg 342 118 destroy;
#X msg 156 71 set create;
#X obj 67 41 route create;
#X msg 132 112 dimen 1920 1080 \, create \, 1;
#X obj 132 136 gemwin 24;
#X obj 272 13 inlet;
#X connect 1 0 5 0;
#X connect 2 0 0 0;
#X connect 3 0 7 0;
#X connect 4 0 0 0;
#X connect 5 0 2 0;
#X connect 5 0 6 0;
#X connect 5 1 4 0;
#X connect 5 1 3 0;
#X connect 6 0 7 0;
#X connect 8 0 7 0;
#X restore 448 163 pd gemwin;
#X msg 448 144 destroy;
#X msg 412 270 open 20190413_155018_816.mp4;
#X obj 412 234 del 500;
#X obj 412 68 bng 42 250 50 0 empty empty empty 17 7 0 10 -262144 -1
-1;
#X text 460 82 START;
#N canvas 314 317 568 328 mouselook 0;
#X obj 112 22 gemmouse 1 1;
#X obj 68 268 s worldline_z_rotation;
#X obj 146 56 tgl 15 0 empty empty empty 17 7 0 10 -262144 -1 -1 0
1;
#X obj 68 86 delta;
#X obj 68 220 value worldline_z_rotation;
#X obj 68 178 t b a;
#X obj 68 156 expr worldline_z_rotation + $f1;
#X obj 68 108 spigot;
#X obj 68 130 * 360;
#X obj 304 80 delta;
#X obj 304 172 t b a;
#X obj 304 102 spigot;
#X obj 304 124 * 180;
#X obj 304 150 expr worldline_x_rotation + $f1;
#X obj 304 214 value worldline_x_rotation;
#X obj 304 262 s worldline_x_rotation;
#X connect 0 0 3 0;
#X connect 0 1 9 0;
#X connect 0 2 2 0;
#X connect 2 0 7 1;
#X connect 2 0 11 1;
#X connect 3 0 7 0;
#X connect 4 0 1 0;
#X connect 5 0 4 0;
#X connect 5 1 4 0;
#X connect 6 0 5 0;
#X connect 7 0 8 0;
#X connect 8 0 6 0;
#X connect 9 0 11 0;
#X connect 10 0 14 0;
#X connect 10 1 14 0;
#X connect 11 0 12 0;
#X connect 12 0 13 0;
#X connect 13 0 10 0;
#X connect 14 0 15 0;
#X restore 664 96 pd mouselook;
#N canvas 0 0 450 300 (subpatch) 0;
#X array worldline_opacity 24 float 22 #ffffff black;
#X coords 0 1 24 0 200 140 1;
#X restore 102 144 graph;
#X obj 102 58 loadbang;
#N canvas 276 148 552 549 stream-frames 0;
#X obj 52 366 pix_buffer_write worldline;
#X obj 52 266 pix_film;
#X obj 356 236 r worldline_buffer_max;
#X obj 52 32 inlet pix_film_cmd;
#X msg 152 266 0;
#X obj 240 274 expr ($i1 + 1) % $i2;
#X obj 202 276 i;
#X obj 202 192 spigot;
#X obj 202 136 t b;
#X msg 100 176 auto \$1;
#X obj 262 338 t 1;
#X obj 262 374 outlet loaded;
#X obj 236 32 inlet active;
#X obj 86 88 gemhead 1;
#X obj 230 306 s worldline_buffer_write_head;
#X connect 1 0 0 0;
#X connect 1 1 10 0;
#X connect 1 2 4 0;
#X connect 2 0 5 1;
#X connect 3 0 1 0;
#X connect 4 0 1 1;
#X connect 5 0 6 1;
#X connect 6 0 5 0;
#X connect 6 0 0 1;
#X connect 6 0 14 0;
#X connect 7 0 6 0;
#X connect 8 0 7 0;
#X connect 9 0 1 0;
#X connect 10 0 11 0;
#X connect 12 0 7 1;
#X connect 12 0 9 0;
#X connect 13 0 1 0;
#X connect 13 0 8 0;
#X restore 412 364 pd stream-frames;
#X obj 460 316 tgl 15 0 empty empty empty 17 7 0 10 -262144 -1 -1 1
1;
#X obj 662 328 loadbang;
#X obj 662 372 s worldline_buffer_max;
#X text 480 316 active;
#X msg 634 246 open arboretum_shadow.mp4;
#X msg 648 282 open livingroom_disco.mp4;
#X msg 580 210 open 20190413_154935_156.mp4;
#X msg 584 176 open 20190416_181235_653.mp4;
#X msg 560 146 open 20190419_2039.mp4;
#X obj 104 364 clone worldline_unit 24 0.5, f 29;
#X obj 662 350 pix_buffer worldline 24;
#X obj 526 64 tgl 15 0 empty empty empty 17 7 0 10 -262144 -1 -1 0
1;
#X msg 792 198 open 20190511_123137_327.mp4;
#X msg 102 86 \; worldline_opacity const 0.075;
#N canvas 356 197 568 456 hann-window 0;
#X obj 378 165 osc~;
#X obj 378 190 *~ -0.5;
#X obj 378 214 +~ 0.5;
#X obj 38 173 /;
#X obj 127 142 samplerate~;
#X obj 38 251 s window-sec;
#X obj 177 204 swap;
#X obj 177 228 /;
#X obj 177 252 s window-hz;
#X obj 49 201 * 1000;
#X obj 49 228 s window-msec;
#X obj 38 115 t f b f;
#X msg 173 92 resize \$1;
#X obj 330 105 r window-hz;
#X msg 382 130 0;
#X obj 330 131 t f b;
#X text 15 8 calculate Hann window table (variable window size) and
constants window-hz (fundamental frequency of analysis) \, window-sec
and window-msec (analysis window size in seconds and msec).;
#X obj 40 84 i 24;
#X obj 38 64 inlet;
#X obj 173 116 s worldline_opacity;
#X obj 331 283 tabwrite~ worldline_opacity;
#X obj 378 236 *~ 0.1;
#X connect 0 0 1 0;
#X connect 1 0 2 0;
#X connect 2 0 21 0;
#X connect 3 0 5 0;
#X connect 3 0 9 0;
#X connect 4 0 3 1;
#X connect 4 0 6 1;
#X connect 6 0 7 0;
#X connect 6 1 7 1;
#X connect 7 0 8 0;
#X connect 9 0 10 0;
#X connect 11 0 3 0;
#X connect 11 0 6 0;
#X connect 11 1 4 0;
#X connect 11 2 12 0;
#X connect 12 0 19 0;
#X connect 13 0 15 0;
#X connect 14 0 0 1;
#X connect 15 0 0 0;
#X connect 15 1 14 0;
#X connect 15 1 20 0;
#X connect 17 0 11 0;
#X connect 18 0 17 0;
#X connect 21 0 20 0;
#X restore 300 102 pd hann-window;
#X obj 302 56 bng 15 250 50 0 empty empty empty 17 7 0 10 -262144 -1
-1;
#X msg 530 96 stereo \$1 \, fullscreen \$1;
#X obj 604 12 key;
#X obj 604 34 sel 27;
#X connect 0 0 1 0;
#X connect 1 0 0 0;
#X connect 2 0 9 0;
#X connect 3 0 2 0;
#X connect 4 0 1 0;
#X connect 4 0 3 0;
#X connect 8 0 23 0;
#X connect 9 0 10 0;
#X connect 10 0 9 1;
#X connect 11 0 20 0;
#X connect 14 0 9 0;
#X connect 15 0 9 0;
#X connect 16 0 9 0;
#X connect 17 0 9 0;
#X connect 18 0 9 0;
#X connect 20 0 12 0;
#X connect 21 0 26 0;
#X connect 22 0 9 0;
#X connect 25 0 24 0;
#X connect 26 0 0 1;
#X connect 27 0 28 0;
#X connect 28 0 1 0;
