#N canvas 204 112 1100 540 10;
#N canvas 414 243 451 301 gemwin 0;
#X obj 132 136 gemwin;
#X obj 67 89 outlet;
#X obj 67 10 inlet;
#X msg 67 70 set destroy;
#X msg 342 118 destroy;
#X msg 156 71 set create;
#X obj 67 41 route create;
#X msg 132 112 dimen 1920 1080 \, create \, 1;
#X connect 2 0 6 0;
#X connect 3 0 1 0;
#X connect 4 0 0 0;
#X connect 5 0 1 0;
#X connect 6 0 3 0;
#X connect 6 0 7 0;
#X connect 6 1 5 0;
#X connect 6 1 4 0;
#X connect 7 0 0 0;
#X restore 840 157 pd gemwin;
#X msg 840 138 destroy;
#X text 290 322 rotation;
#X obj 292 340 hsl 128 15 0 360 0 0 empty empty empty -2 -8 0 10 -262144
-1 -1 0 1;
#X msg 104 270 all \$1;
#X msg 292 360 all \$1;
#X floatatom 104 242 5 0 0 0 - - -, f 5;
#X obj 134 196 i;
#X obj 166 196 + 1;
#X obj 104 102 tgl 15 0 empty empty empty 17 7 0 10 -262144 -1 -1 0
1;
#X obj 104 124 metro 33;
#X msg 642 256 open 20190413_155018_816.mp4;
#X obj 786 106 del 500;
#N canvas 276 148 552 549 load-frames 0;
#X obj 302 200 + 0;
#X obj 190 166 until;
#X obj 190 134 t f b;
#X obj 190 196 i;
#X obj 223 195 + 1;
#X msg 239 166 0;
#X obj 60 308 gemhead;
#X obj 46 406 pix_buffer_write worldline;
#X obj 190 226 t b f f;
#X obj 46 356 pix_film;
#X obj 190 68 i;
#X obj 328 264 - 1;
#X obj 190 98 min;
#X obj 230 70 r worldline_buffer_max;
#X obj 382 232 r worldline_buffer_max;
#X obj 316 336 sel 1;
#X obj 314 414 outlet done;
#X obj 320 32 inlet offset;
#X obj 190 32 inlet frame_count;
#X obj 52 32 inlet pix_film_cmd;
#X obj 376 386 s \$0-frames-loaded;
#X connect 0 0 7 1;
#X connect 1 0 3 0;
#X connect 2 0 1 0;
#X connect 2 1 5 0;
#X connect 3 0 4 0;
#X connect 3 0 8 0;
#X connect 4 0 3 1;
#X connect 5 0 3 1;
#X connect 6 0 9 0;
#X connect 8 0 6 0;
#X connect 8 1 9 1;
#X connect 8 2 0 0;
#X connect 8 2 15 0;
#X connect 9 0 7 0;
#X connect 9 1 10 0;
#X connect 10 0 12 0;
#X connect 11 0 15 1;
#X connect 12 0 2 0;
#X connect 12 0 11 0;
#X connect 13 0 12 1;
#X connect 14 0 11 0;
#X connect 15 0 16 0;
#X connect 15 0 20 0;
#X connect 17 0 0 1;
#X connect 18 0 10 0;
#X connect 19 0 9 0;
#X restore 852 368 pd load-frames;
#X floatatom 932 334 5 0 0 0 - - -, f 5;
#X text 890 330 offset;
#X obj 840 78 bng 15 250 50 0 empty empty empty 17 7 0 10 -262144 -1
-1;
#X floatatom 892 296 5 0 0 0 - - -, f 5;
#X text 932 296 frames to load;
#X text 678 144 maxmimum frames to store;
#X floatatom 642 146 5 0 0 0 - - -, f 5;
#X msg 642 171 resize \$1;
#X obj 678 222 s worldline_buffer_max;
#X text 864 76 START;
#X obj 642 218 t b;
#X msg 104 76 1;
#X obj 642 196 pix_buffer worldline 1;
#X obj 102 50 r \$0-frames-loaded;
#X obj 852 390 bng 15 250 50 0 empty empty empty 17 7 0 10 -262144
-1 -1;
#X obj 234 102 r \$0-millis-per-tick;
#N canvas 314 255 568 326 mouselook 0;
#X obj 112 22 gemmouse 1 1;
#X obj 112 260 s worldline_z_rotation;
#X obj 146 56 tgl 15 0 empty empty empty 17 7 0 10 -262144 -1 -1 0
1;
#X obj 112 78 delta;
#X obj 112 212 value worldline_z_rotation;
#X obj 112 170 t b a;
#X obj 112 148 expr worldline_z_rotation + $f1;
#X obj 112 100 spigot;
#X obj 112 122 * 360;
#X connect 0 0 3 0;
#X connect 0 2 2 0;
#X connect 2 0 7 1;
#X connect 3 0 7 0;
#X connect 4 0 1 0;
#X connect 5 0 4 0;
#X connect 5 1 4 0;
#X connect 6 0 5 0;
#X connect 7 0 8 0;
#X connect 8 0 6 0;
#X restore 502 52 pd mouselook;
#N canvas 0 0 450 300 (subpatch) 0;
#X array worldline_opacity 40 float 22 #ffffff black;
#X coords 0 1 40 0 200 140 1;
#X restore 214 176 graph;
#X obj 392 94 loadbang;
#X msg 392 122 \; worldline_opacity const 0.2;
#X obj 102 166 gate 2;
#X obj 34 142 hradio 15 0 1 3 empty empty empty 0 -8 0 10 -262144 -1
-1 2;
#X msg 60 198 0;
#X obj 500 234 vradio 19 0 1 4 empty empty empty 0 -8 0 10 -262144
-1 -1 1;
#N canvas 276 148 552 549 stream-frames 0;
#X obj 84 192 gemhead;
#X obj 46 468 pix_buffer_write worldline;
#X obj 50 322 pix_film;
#X obj 354 338 r worldline_buffer_max;
#X obj 52 32 inlet pix_film_cmd;
#X obj 72 354 unpack 0 0 0 0;
#X obj 264 452 s \$0-frames-loaded;
#X obj 262 488 outlet started;
#X msg 114 322 0;
#X obj 238 376 expr ($i1 + 1) % $i2;
#X obj 200 378 i;
#X obj 200 294 spigot;
#X obj 232 236 tgl 15 0 empty empty empty 17 7 0 10 -262144 -1 -1 1
1;
#X obj 158 396 t 1 b;
#X obj 200 204 t b;
#X msg 98 278 auto \$1;
#X obj 236 32 inlet;
#X connect 0 0 2 0;
#X connect 0 0 14 0;
#X connect 2 0 1 0;
#X connect 2 1 5 0;
#X connect 2 2 8 0;
#X connect 3 0 9 1;
#X connect 4 0 2 0;
#X connect 5 0 13 0;
#X connect 8 0 2 1;
#X connect 9 0 10 1;
#X connect 10 0 9 0;
#X connect 10 0 1 1;
#X connect 11 0 10 0;
#X connect 12 0 11 1;
#X connect 12 0 15 0;
#X connect 13 0 7 0;
#X connect 13 1 6 0;
#X connect 14 0 11 0;
#X connect 15 0 2 0;
#X connect 16 0 12 0;
#X restore 646 394 pd stream-frames;
#X msg 642 122 40;
#X obj 104 390 clone worldline_unit 40 40 0.5, f 29;
#X obj 646 416 bng 15 250 50 0 empty empty empty 17 7 0 10 -262144
-1 -1;
#X obj 500 340 s worldline_mode;
#X obj 646 316 gate 3;
#X text 522 254 streaming;
#X text 522 274 batch (forward);
#X text 524 294 batch (reverse);
#X obj 736 374 tgl 15 0 empty empty empty 17 7 0 10 -262144 -1 -1 1
1;
#X text 754 374 write enabled;
#X connect 0 0 1 0;
#X connect 1 0 0 0;
#X connect 3 0 5 0;
#X connect 4 0 40 0;
#X connect 5 0 40 1;
#X connect 6 0 4 0;
#X connect 7 0 8 0;
#X connect 7 0 6 0;
#X connect 8 0 7 1;
#X connect 9 0 10 0;
#X connect 10 0 34 1;
#X connect 11 0 43 1;
#X connect 12 0 39 0;
#X connect 13 0 28 0;
#X connect 14 0 13 2;
#X connect 16 0 1 0;
#X connect 16 0 12 0;
#X connect 17 0 13 1;
#X connect 20 0 21 0;
#X connect 21 0 26 0;
#X connect 24 0 11 0;
#X connect 25 0 9 0;
#X connect 26 0 22 0;
#X connect 26 0 24 0;
#X connect 27 0 25 0;
#X connect 29 0 10 1;
#X connect 32 0 33 0;
#X connect 34 0 36 0;
#X connect 34 1 7 0;
#X connect 35 0 34 0;
#X connect 36 0 6 0;
#X connect 37 0 42 0;
#X connect 37 0 43 0;
#X connect 38 0 41 0;
#X connect 38 0 47 0;
#X connect 39 0 20 0;
#X connect 43 0 38 0;
#X connect 43 1 13 0;
#X connect 43 2 13 0;
#X connect 47 0 38 1;
