#N canvas 0 58 1280 639 10;
#N canvas 414 243 451 301 gemwin 0;
#X obj 132 136 gemwin;
#X obj 67 89 outlet;
#X obj 67 10 inlet;
#X msg 67 70 set destroy;
#X msg 342 118 destroy;
#X msg 156 71 set create;
#X obj 67 41 route create;
#X msg 132 112 dimen 1920 1080 \, create \, 1;
#X connect 2 0 6 0;
#X connect 3 0 1 0;
#X connect 4 0 0 0;
#X connect 5 0 1 0;
#X connect 6 0 3 0;
#X connect 6 0 7 0;
#X connect 6 1 5 0;
#X connect 6 1 4 0;
#X connect 7 0 0 0;
#X restore 872 165 pd gemwin;
#X msg 872 146 create;
#X text 326 102 rotation;
#X obj 328 120 hsl 128 15 0 360 0 0 empty empty empty -2 -8 0 10 -262144
-1 -1 2000 1;
#X msg 170 146 all \$1;
#X msg 328 140 all \$1;
#X obj 514 296 gemhead;
#X obj 514 382 pix_buffer_write worldline;
#X floatatom 170 118 5 0 0 0 - - -, f 5;
#X obj 170 64 i;
#X obj 216 64 + 1;
#X obj 170 18 tgl 15 0 empty empty empty 17 7 0 10 -262144 -1 -1 1
1;
#X obj 170 42 metro 33;
#X msg 256 214 all \$1;
#X obj 256 52 vsl 15 128 0.01 1 1 0 empty empty empty 0 -9 0 10 -262144
-1 -1 6000 1;
#X floatatom 284 180 5 0 0 0 - - -, f 5;
#X obj 514 322 pix_film arboretum_shadow.mp4;
#X obj 602 130 pix_buffer worldline 120;
#X obj 170 306 clone worldline_unit 40 120 0.5, f 29;
#X msg 810 50 open 20190413_155018_816.mp4;
#X obj 806 92 del 500;
#X obj 770 74 t b;
#N canvas 159 238 451 301 load-frames 0;
#X obj 122 26 inlet;
#X obj 252 14 inlet;
#X obj 234 194 + 0;
#X obj 124 126 until;
#X obj 124 94 t f b;
#X obj 124 156 i;
#X obj 157 155 + 1;
#X msg 173 126 0;
#X msg 124 64 120;
#X obj 96 262 outlet;
#X obj 240 258 outlet;
#X obj 122 186 t b f;
#X connect 0 0 8 0;
#X connect 1 0 2 1;
#X connect 2 0 10 0;
#X connect 3 0 5 0;
#X connect 4 0 3 0;
#X connect 4 1 7 0;
#X connect 5 0 6 0;
#X connect 5 0 11 0;
#X connect 6 0 5 1;
#X connect 7 0 5 1;
#X connect 8 0 4 0;
#X connect 11 0 9 0;
#X connect 11 1 2 0;
#X restore 654 246 pd load-frames;
#X floatatom 734 208 5 0 0 0 - - -, f 5;
#X text 780 212 offset;
#X msg 656 200 120;
#X connect 0 0 1 0;
#X connect 1 0 0 0;
#X connect 3 0 5 0;
#X connect 4 0 18 0;
#X connect 5 0 18 2;
#X connect 6 0 16 0;
#X connect 8 0 4 0;
#X connect 9 0 10 0;
#X connect 9 0 8 0;
#X connect 10 0 9 1;
#X connect 11 0 12 0;
#X connect 12 0 9 0;
#X connect 13 0 18 1;
#X connect 14 0 13 0;
#X connect 14 0 15 0;
#X connect 16 0 7 0;
#X connect 19 0 21 0;
#X connect 21 0 20 0;
#X connect 22 0 6 0;
#X connect 22 1 7 1;
#X connect 22 1 16 1;
#X connect 23 0 22 1;
#X connect 25 0 22 0;
