#N canvas 310 200 934 497 10;
#X obj 52 42 gemhead;
#X obj 52 246 rotateXYZ 90 0 0, f 37;
#X obj 52 324 pix_texture;
#X obj 180 335 loadbang;
#X obj 180 357 i \$1;
#X obj 52 302 pix_buffer_read worldline;
#X obj 52 426 sphere 5 20;
#X obj 52 152 color 1 1 1 0.2;
#X obj 270 184 r worldline_z_rotation;
#X obj 52 346 alpha;
#X obj 138 104 tabread worldline_opacity;
#X msg 138 126 1 1 1 \$1;
#X obj 180 379 * \$2;
#X obj 180 401 + 5;
#X obj 354 238 r worldline_buffer_write_head;
#X obj 138 78 t \$1;
#X obj 354 268 expr ($i1 + \$1) % $i2;
#X obj 550 240 r worldline_buffer_max;
#X obj 126 186 r worldline_x_rotation;
#X obj 126 208 + 90;
#X connect 0 0 7 0;
#X connect 0 0 15 0;
#X connect 1 0 5 0;
#X connect 2 0 9 0;
#X connect 3 0 4 0;
#X connect 4 0 12 0;
#X connect 5 0 2 0;
#X connect 7 0 1 0;
#X connect 8 0 1 3;
#X connect 9 0 6 0;
#X connect 10 0 11 0;
#X connect 11 0 7 1;
#X connect 12 0 13 0;
#X connect 13 0 6 1;
#X connect 14 0 16 0;
#X connect 15 0 10 0;
#X connect 16 0 5 1;
#X connect 17 0 16 1;
#X connect 18 0 19 0;
#X connect 19 0 1 1;
