#N canvas 422 121 786 387 10;
#X obj 50 88 gemhead;
#X obj 50 110 alpha;
#X obj 50 170 rotateXYZ 90 0 0;
#X obj 50 226 pix_texture;
#X obj 334 33 loadbang;
#X obj 334 55 i \$1;
#X obj 195 73 inlet;
#X obj 50 204 pix_buffer_read worldline;
#X obj 50 330 sphere 5 20;
#X obj 336 204 + 5;
#X obj 420 46 inlet alpha;
#X msg 420 102 1 1 1 \$1;
#X obj 527 97 inlet rotation;
#X obj 336 182 * \$3;
#X obj 50 140 color 1 1 1 0.2;
#X obj 195 103 expr ($i1 + \$1) % \$2;
#X connect 0 0 1 0;
#X connect 1 0 14 0;
#X connect 2 0 7 0;
#X connect 3 0 8 0;
#X connect 4 0 5 0;
#X connect 5 0 13 0;
#X connect 6 0 15 0;
#X connect 7 0 3 0;
#X connect 9 0 8 1;
#X connect 10 0 11 0;
#X connect 11 0 14 1;
#X connect 12 0 2 3;
#X connect 13 0 9 0;
#X connect 14 0 2 0;
#X connect 15 0 7 1;
